<svg width="50px" height="50px" xmlns="http://www.w3.org/2000/svg" xmlns:xlink="http://www.w3.org/1999/xlink" version="1.1" x="0px" y="0px" viewBox="0 0 100 125" enable-background="new 0 0 100 100" xml:space="preserve"><g><path fill="none" stroke="#000000" stroke-width="1.2768" stroke-miterlimit="10" d="M67.493,24.142   c4.214,0,7.661,3.447,7.661,7.661v12.668c0,4.213-3.447,7.661-7.661,7.661H41.637c-4.213,0-7.661-3.447-7.661-7.661V31.803   c0-4.213,3.447-7.661,7.661-7.661H67.493z"/></g><path d="M36.109,19.039c0,0-13.3,12.98-1.277,23.408c0,0-1.064-8.086,1.277-9.682c0,0,0.106,1.171,0.532,0.958  c0.426-0.213,4.469-8.086,6.49-8.406c2.022-0.319,0.958-0.319,1.384,1.703c0.426,2.022,0.425,3.937,1.702,4.362  c1.278,0.426,1.81-2.128,1.81-2.766c0,0,2.765,7.661,2.979-0.319c0,0,2.766,5,4.042,4.256c1.278-0.745,0-2.447,0-2.447  s5.534,2.448,6.812,2.341c0,0-1.062-1.276,0-2.66c1.062-1.383,0.959,0.212,2.66,0.958c1.701,0.745,5.32,1.489,5.32,1.489  s2.02,1.597,2.445,0.213c0.427-1.383,0.427-1.383,0.427-1.383s1.062,4.787,2.446,5.639c1.384,0.852,1.064-1.596,1.064-1.596  s-0.43,3.938-1.812,3.725c-1.387-0.213,1.383,3.83,2.341,1.063s0.958-7.341,0.958-7.341s1.277-4.362-0.639-6.384  c0,0,0-10.427-17.559-10.746c-3.391-0.799-7.641-2.087-6.81,0.958c0,0-1.701-1.431-3.298-1.673  c-1.596-0.243-1.277,0.183-0.958,0.715C48.771,15.953,40.791,14.358,36.109,19.039z"/><circle cx="43.398" cy="39.521" r="3.564"/><circle cx="65.956" cy="39.521" r="3.564"/><path fill="none" stroke="#000000" stroke-width="1.2768" stroke-miterlimit="10" d="M33.237,36.596c0,0-5.428,2.979,0.744,7.342  v-7.342H33.237z"/><path fill="none" stroke="#000000" stroke-width="1.2768" stroke-miterlimit="10" d="M75.902,36.596c0,0,5.428,2.979-0.744,7.342  v-7.342H75.902z"/><path d="M38.131,34.255c0,0,5.268-3.085,9.79,0.638v0.798C47.92,35.691,39.993,33.563,38.131,34.255z"/><path fill="none" stroke="#000000" stroke-width="1.2768" stroke-miterlimit="10" d="M48.801,40.779c0,3.55-2.873,6.41-6.41,6.41  s-6.41-2.86-6.41-6.41c0-3.537,2.873-6.409,6.41-6.409S48.801,37.242,48.801,40.779z"/><path fill="none" stroke="#000000" stroke-width="1.2768" stroke-miterlimit="10" d="M72.372,40.779c0,3.55-2.874,6.41-6.411,6.41  c-3.549,0-6.409-2.86-6.409-6.41c0-3.537,2.86-6.409,6.409-6.409C69.498,34.37,72.372,37.242,72.372,40.779z"/><line fill="none" stroke="#000000" stroke-width="1.2768" stroke-miterlimit="10" x1="32.506" y1="40.783" x2="35.983" y2="40.783"/><path fill="none" stroke="#000000" stroke-width="1.2768" stroke-miterlimit="10" d="M48.783,40.266c0,0,6.119-2.369,10.783,0"/><path d="M70.266,34.255c0,0-5.268-3.085-9.789,0.638v0.798C60.477,35.691,68.402,33.563,70.266,34.255z"/><path d="M50.55,64.186c-0.179,0.535-0.358,1.188-0.511,1.9c0,0.027-0.014,0.053-0.014,0.077c-0.996,4.774-1.238,12.538-1.238,12.538  s-1.609-0.037-2.975-0.293c-0.626-0.114-1.2-0.268-1.558-0.497c-1.124-0.716,1.188-9.654,1.584-10.854  c0.408-1.201,0.727-7.738,0.727-7.738s-5.132,8.938-7.367,5.687c-0.229-0.332-0.421-0.627-0.574-0.896  c0.191,0.037,0.395,0.054,0.6,0.054c1.622,0,2.95-1.216,2.95-2.695c0-0.813-0.396-1.545-1.022-2.016l0.383-0.397  c0,0,3.141-6.918,4.251-6.918h6.04C51.827,52.132,51.992,60.035,50.55,64.186z"/><path fill="none" stroke="#000000" stroke-width="1.8111" stroke-miterlimit="10" d="M42.174,61.464c0,1.481-1.328,2.695-2.95,2.695  c-0.205,0-0.409-0.015-0.6-0.052c-1.341-0.256-2.362-1.34-2.362-2.646c0-1.146,0.804-2.146,1.941-2.502  c-0.128-0.218-0.205-0.482-0.205-0.768c0-0.767,0.575-1.381,1.265-1.381c0.702,0,1.264,0.614,1.264,1.381  c0,0.281-0.077,0.55-0.217,0.776c0.306,0.115,0.6,0.271,0.842,0.476C41.778,59.919,42.174,60.646,42.174,61.464z"/><path d="M68.132,63.941c-0.522-1.238-3.317,0.051-4.264,0.521c-0.191,0.104-0.308,0.165-0.308,0.165  c0.15-1.062-1.599-6.648-2.299-6.333c-0.701,0.319,0.062,1.711,0,3.729c-0.062,2.019,2.67,7.766,2.67,7.766s1.123,4.1,0.957,5.005  c-0.152,0.906,0.269,2.822,0,2.556c-0.271-0.271-0.318-0.154-1.328,0.164c-0.937,0.295,1.621,1.532-1.201,0.357v-0.014  c-0.229-0.104-0.51-0.217-0.815-0.346c-1.788-0.769-2.771-5.685-3.319-10.994c0-0.053-0.015-0.113-0.015-0.166  c-0.701-6.815-0.662-14.225-0.662-14.225h5.374c2.235,1.544,1.227,2.336,2.822,4.366c1.136,1.44,2.184,5.353,2.464,6.944  C68.324,64.107,68.311,64.375,68.132,63.941z"/><path fill="none" stroke="#000000" stroke-width="1.2768" stroke-miterlimit="10" d="M58.557,52.132  c-0.318,0.509-0.588,0.994-0.588,1.175c0,0.422-3.396,2.604-3.396,2.604c-0.804,0.217-3.294-2.604-3.294-2.604l-0.18-1.175H58.557z"/><path fill="none" stroke="#000000" stroke-width="1.2768" stroke-miterlimit="10" d="M55.195,60.324"/><path d="M54.802,53.521l0.855,1.66c0,0-0.55,0.664-1.085,0.729c-0.536,0.064-1.315-0.663-1.315-0.663l0.997-1.636  c-0.574-0.344-1.277-1.479-1.277-1.479s3.026-0.588,2.924,0C55.822,52.553,55.16,53.203,54.802,53.521z"/><g><path d="M49.841,64.677c0,0,0.144-0.091,0.387-0.175c0.244-0.087,0.586-0.17,0.993-0.2c0.202-0.009,0.422-0.021,0.65,0.021   c0.229,0.04,0.466,0.153,0.714,0.258c0.495,0.228,1.039,0.226,1.579,0.04c0.271-0.082,0.537-0.18,0.799-0.212   c0.26-0.04,0.516-0.078,0.762-0.116c0.488-0.081,0.94-0.041,1.325-0.014c0.38,0.037,0.697,0.068,0.921,0.091   c0.219,0.022,0.344-0.024,0.354-0.024l0.104,0.07c0,0-0.013,0.043-0.033,0.124c-0.028,0.076-0.104,0.185-0.203,0.29   c-0.209,0.22-0.56,0.425-0.978,0.576c-0.42,0.144-0.914,0.255-1.438,0.213c-0.262-0.016-0.529-0.044-0.803-0.081   c-0.271-0.03-0.548-0.129-0.817-0.22c-0.544-0.2-1.079-0.239-1.601-0.062c-0.261,0.082-0.513,0.174-0.746,0.188   c-0.234,0.017-0.457-0.022-0.66-0.062c-0.401-0.084-0.733-0.219-0.961-0.344c-0.229-0.122-0.355-0.237-0.355-0.237L49.841,64.677z"/></g><path fill="none" stroke="#000000" stroke-width="1.1765" stroke-miterlimit="10" d="M62.359,77.859v1.519  c0,0-0.867,0.447-2.104-0.229c-0.805-0.443-2.323-0.051-3.271,0.281c-0.498,0.166-0.842,0.318-0.842,0.318s0-0.012,0-0.038  c-0.039-0.435-0.32-4.328-0.244-4.431c0.076-0.127-0.355-2.924-0.637-4.674c-0.283-1.766-0.357-1.801-1.434-1.162  c-1.087,0.64-1.366,8.861-1.273,9.476c0.051,0.446,0.072,1.378-0.221,1.597c-0.111,0.114-0.277,0.09-0.511-0.127  c-0.792-0.768-6.104,0-6.104,0c-0.243-0.205-0.076-1.216,0.089-1.979c1.366,0.256,2.975,0.293,2.975,0.293s0.242-7.764,1.238-12.538  c0-0.024,0.014-0.05,0.014-0.077l0.548,0.077c1.396,0.179,5.121,0.588,6.96,0.356l0.662-0.166c0,0.053,0.018,0.115,0.018,0.166  c0.549,5.312,1.528,10.229,3.316,10.992C61.852,77.643,62.131,77.757,62.359,77.859z"/><path stroke="#000000" stroke-width="1.2768" stroke-miterlimit="10" d="M52.391,83.465c-0.32-0.052-0.218-0.958-1.291,0.688  c-1.074,1.66-2.271,1.277-5.874,0.809c-3.588-0.482,0.498-4.566,0.498-4.566s5.312-0.771,6.104,0  c0.23,0.217,0.396,0.238,0.511,0.127l0.052,0.072C52.391,80.591,52.708,83.516,52.391,83.465z"/><path stroke="#000000" stroke-width="1.2349" stroke-miterlimit="10" d="M66.18,83.413c-1.443,2.655-7.509-0.255-7.662-0.103  c-0.14,0.166-0.188,0.11-1.199,0c-0.98-0.104-0.688-2.979-0.688-2.979s0.062-0.15,0.229-0.562c0.039-0.104,0.076-0.217,0.129-0.347  c0.945-0.332,2.467-0.729,3.271-0.28c1.237,0.68,2.104,0.229,2.104,0.229v-0.459c0.104,0.112,0.205,0.229,0.309,0.354  c0.182,0.203,0.355,0.422,0.521,0.641C63.932,80.872,67.621,80.758,66.18,83.413z"/><path fill="none" stroke="#000000" stroke-width="1.2768" stroke-miterlimit="10" d="M67.891,63.562  c0,1.619-0.974,2.924-2.179,2.924c-1.194,0-2.165-1.305-2.165-2.924c0-0.166,0.012-0.332,0.034-0.485  C64.448,62.604,67.891,63.014,67.891,63.562z"/><path stroke="#000000" stroke-width="1.2768" stroke-miterlimit="10" d="M36.859,59.854L21.984,43.085c0,0-0.718-1.703,1.437-0.638  l14.783,16.515L36.859,59.854z"/><path stroke="#000000" stroke-width="1.2768" stroke-miterlimit="10" d="M40.62,63.82l2.272,1.596c0,0,1.465,0.676,1.436-1.035  l-2.304-2.111L40.62,63.82z"/><line fill="none" stroke="#000000" stroke-width="1.2768" stroke-miterlimit="10" x1="72.372" y1="40.783" x2="75.85" y2="40.783"/><g><path d="M52.002,47.188c0,0,0.42,0.179,0.962,0.376c0.134,0.044,0.279,0.091,0.433,0.142c0.146,0.057,0.312,0.069,0.463,0.126   c0.318,0.045,0.641,0.125,0.959,0.095c0.32,0.02,0.64-0.058,0.957-0.108c0.15-0.058,0.312-0.093,0.463-0.13   c0.148-0.052,0.291-0.11,0.435-0.153c0.284-0.082,0.513-0.203,0.688-0.257c0.183-0.062,0.293-0.091,0.293-0.091   s-0.033,0.104-0.118,0.278c-0.097,0.165-0.203,0.436-0.438,0.668c-0.211,0.265-0.521,0.513-0.904,0.731   c-0.203,0.081-0.412,0.191-0.646,0.246c-0.232,0.031-0.477,0.103-0.719,0.092c-0.245-0.005-0.486-0.03-0.721-0.088   c-0.235-0.032-0.438-0.158-0.646-0.234c-0.388-0.209-0.705-0.46-0.92-0.722C52.092,47.651,52.002,47.188,52.002,47.188z"/></g><g><path d="M53.245,28c-0.02,0.742-0.117,1.461-0.23,2.177c-0.122,0.713-0.267,1.42-0.444,2.118l-0.249-0.562   c0.594,0.277,1.171,0.586,1.748,0.896l0.417,0.224l-0.197,0.396c-0.577,1.158-1.211,2.291-2.018,3.346   c0.248-1.305,0.669-2.533,1.146-3.735l0.22,0.62c-0.591-0.283-1.182-0.565-1.756-0.881l-0.356-0.195l0.107-0.366   c0.203-0.691,0.44-1.373,0.699-2.049C52.6,29.316,52.883,28.647,53.245,28z"/></g></svg>